<?xml version="1.0" standalone="no"?>
<!DOCTYPE svg PUBLIC "-//W3C//DTD SVG 20010904//EN"
 "http://www.w3.org/TR/2001/REC-SVG-20010904/DTD/svg10.dtd">
<svg version="1.0" xmlns="http://www.w3.org/2000/svg"
 width="256.000000pt" height="256.000000pt" viewBox="0 0 512.000000 512.000000"
 preserveAspectRatio="xMidYMid meet">
<g transform="translate(0.000000,512.000000) scale(0.100000,-0.100000)"
fill="#4fd1c5" stroke="none">
<path d="M1637 4899 c-60 -14 -118 -48 -170 -97 -39 -39 -57 -48 -109 -59
-164 -33 -291 -155 -327 -314 -6 -24 -11 -117 -11 -206 0 -148 -2 -163 -17
-163 -29 0 -75 -36 -100 -77 -20 -33 -23 -51 -23 -141 0 -82 4 -110 19 -141
31 -59 81 -98 148 -111 32 -7 62 -13 67 -14 5 -1 19 -48 32 -104 31 -140 85
-241 186 -347 42 -45 103 -100 133 -121 l56 -38 -3 -89 -3 -90 -340 -57 c-399
-68 -383 -65 -459 -103 -118 -58 -211 -172 -247 -302 -15 -55 -18 -60 -42 -57
-73 9 -167 -44 -198 -112 -18 -39 -19 -83 -19 -916 0 -830 1 -877 19 -915 22
-48 54 -79 103 -100 33 -13 203 -15 1510 -15 1411 0 1475 1 1513 19 48 22 79
54 100 103 13 33 15 145 15 910 0 831 -1 875 -19 914 -31 68 -125 121 -198
112 -24 -3 -27 2 -42 57 -36 130 -129 244 -247 302 -76 39 -63 36 -459 103
l-340 58 -3 89 -3 89 56 38 c30 21 91 76 133 121 101 106 155 207 186 347 13
56 27 103 32 104 5 1 35 7 67 14 67 13 117 52 148 111 28 55 27 223 -1 278
-19 39 -73 81 -103 81 -13 0 -16 30 -19 208 -4 192 -6 212 -30 274 -68 180
-213 311 -390 353 -71 17 -534 20 -601 4z m633 -55 c72 -25 138 -64 189 -113
22 -21 43 -37 46 -35 3 2 3 1 0 -2 -2 -4 7 -21 20 -38 22 -29 65 -114 71 -141
19 -79 24 -144 24 -281 0 -160 0 -163 25 -190 14 -15 25 -24 25 -21 0 4 12 -3
27 -16 65 -54 62 -47 60 -170 -2 -110 -3 -115 -32 -150 -16 -19 -36 -36 -42
-36 -7 -1 -13 -6 -13 -12 0 -5 -4 -7 -10 -4 -5 3 -10 3 -10 -2 0 -4 -18 -9
-40 -10 -44 -3 -84 -24 -95 -51 -4 -9 -9 -35 -12 -57 -5 -51 -29 -127 -60
-187 -13 -27 -24 -51 -25 -55 -1 -5 -10 -17 -20 -27 -10 -11 -18 -23 -18 -26
0 -4 -11 -20 -25 -36 -14 -16 -29 -33 -34 -39 -16 -19 -66 -61 -106 -90 -83
-61 -85 -65 -85 -174 0 -85 3 -100 20 -116 11 -10 30 -19 42 -21 13 -2 34 -5
48 -8 37 -9 358 -63 411 -70 64 -9 91 -14 168 -32 36 -9 71 -17 76 -18 104
-24 235 -161 271 -284 23 -75 49 -102 105 -108 75 -9 116 -32 139 -79 20 -40
20 -59 20 -906 l0 -865 -22 -44 c-41 -81 91 -75 -1546 -78 -962 -1 -1477 1
-1501 8 -48 13 -77 38 -96 83 -13 31 -15 153 -15 899 0 844 0 863 20 903 23
47 64 70 138 78 54 6 88 36 97 85 9 51 61 146 104 190 44 45 101 94 101 87 0
-3 15 2 33 12 17 9 34 18 37 18 3 1 39 8 80 17 93 20 158 32 330 59 74 11 162
27 195 35 33 7 73 15 89 18 15 3 39 12 52 21 23 15 24 21 24 115 0 112 0 112
-100 186 -50 38 -94 82 -167 173 -15 19 -27 36 -25 38 1 2 -8 24 -21 51 -32
62 -56 139 -59 182 -4 72 -45 111 -119 114 -16 1 -29 4 -29 7 0 4 -12 12 -27
19 -16 6 -39 26 -53 43 -23 29 -25 40 -27 144 -1 71 2 113 8 113 6 0 8 4 5 9
-3 5 5 16 18 24 13 9 31 23 40 32 9 9 16 14 16 10 0 -3 10 4 23 15 21 20 22
31 27 203 5 180 6 183 38 251 29 61 92 149 92 129 0 -4 4 -3 8 3 13 21 105 63
161 75 31 7 65 20 76 30 11 10 25 19 30 21 5 2 9 6 8 10 -2 5 0 7 5 5 4 -1 19
9 32 21 34 32 93 61 143 72 23 5 159 7 302 6 223 -3 268 -6 315 -22z"/>
<path d="M1622 4785 c-30 -14 -76 -47 -104 -74 -42 -41 -57 -50 -101 -55 -125
-17 -235 -102 -277 -213 -17 -47 -20 -76 -19 -205 1 -214 20 -236 138 -157 76
50 91 78 91 166 0 38 6 75 13 84 13 17 64 17 148 -1 88 -18 315 -32 419 -25
90 5 238 23 344 41 42 7 55 -17 56 -106 0 -89 7 -101 83 -153 73 -51 109 -56
131 -22 15 23 17 48 13 198 -3 95 -7 188 -11 207 -11 62 -55 137 -119 203 -59
62 -137 113 -151 100 -3 -4 -6 -1 -6 5 0 7 -3 11 -7 10 -5 -1 -26 4 -48 10
-26 8 -128 12 -290 12 -245 0 -251 -1 -303 -25z m611 -35 c120 -37 212 -122
259 -240 19 -48 22 -79 26 -249 4 -221 12 -209 -87 -139 l-60 43 -1 88 c0 80
-2 90 -25 112 -28 29 -28 29 -148 10 -170 -26 -348 -35 -489 -24 -73 5 -175
16 -225 24 -120 19 -120 19 -148 -10 -23 -22 -25 -32 -25 -113 l0 -89 -68 -46
c-37 -26 -71 -47 -75 -47 -5 0 -7 78 -5 173 3 164 4 174 30 223 45 85 109 129
211 145 99 15 104 17 127 54 12 19 35 44 52 56 61 44 91 48 344 49 215 0 249
-2 307 -20z"/>
<path d="M1432 4245 c-16 -20 -22 -42 -22 -79 0 -39 -5 -56 -20 -69 -11 -9
-24 -17 -30 -17 -5 0 -13 -6 -17 -14 -4 -8 -12 -16 -18 -17 -22 -6 -89 -69
-93 -89 -2 -8 -3 -104 -2 -212 1 -183 7 -261 26 -313 34 -96 100 -208 117
-198 5 3 7 1 4 -4 -8 -13 126 -141 169 -163 16 -8 36 -19 44 -26 8 -6 44 -22
80 -35 93 -33 248 -33 340 0 36 13 72 29 80 35 8 7 28 18 45 26 16 8 71 56
120 105 110 110 167 215 190 347 4 29 8 279 5 426 0 24 -62 96 -73 85 -4 -3
-9 2 -13 11 -3 9 -10 13 -15 10 -5 -3 -12 2 -15 10 -3 9 -10 16 -15 16 -26 0
-49 42 -49 89 0 38 -6 57 -23 77 l-24 27 -154 -13 c-147 -12 -365 -10 -545 6
-69 6 -71 6 -92 -21z m163 -26 c161 -20 502 -10 612 17 22 6 23 4 23 -63 0
-79 4 -85 118 -163 l62 -43 0 -215 c0 -163 -4 -229 -16 -276 -56 -218 -268
-415 -482 -448 -221 -35 -471 110 -586 339 -46 93 -56 159 -56 389 l0 211 63
43 c113 78 117 84 117 163 l0 69 28 -6 c15 -3 68 -11 117 -17z"/>
<path d="M1017 3958 c-30 -24 -43 -65 -40 -125 4 -76 5 -83 15 -83 4 0 8 -5 8
-11 0 -15 27 -40 48 -44 9 -2 17 -4 17 -5 0 -1 13 -4 29 -6 21 -2 36 4 52 21
19 20 22 36 23 115 1 70 -2 98 -14 116 -9 14 -20 22 -25 19 -6 -4 -10 -1 -10
4 0 15 -83 14 -103 -1z m113 -138 l0 -110 -27 6 c-36 9 -66 24 -75 38 -10 14
-10 160 -1 169 3 4 28 7 55 7 l48 0 0 -110z"/>
<path d="M2560 3959 c0 -5 -4 -8 -10 -4 -5 3 -16 -5 -25 -19 -12 -18 -15 -46
-14 -116 1 -80 4 -95 24 -116 12 -13 32 -24 43 -24 44 0 102 34 102 59 0 6 5
11 10 11 6 0 10 35 10 84 0 74 -3 86 -25 110 -19 21 -33 26 -70 26 -25 0 -45
-5 -45 -11z m98 -104 c5 -108 0 -116 -85 -140 -23 -6 -23 -6 -23 105 l0 111
53 -3 52 -3 3 -70z"/>
<path d="M1635 2920 c-17 -18 -20 -36 -19 -99 1 -85 14 -119 65 -169 104 -102
298 -69 366 62 12 22 16 54 15 110 -3 108 -13 118 -101 110 -85 -8 -160 -8
-241 1 -59 7 -67 5 -85 -15z m133 -32 c68 -10 171 -3 237 17 20 6 21 2 19 -80
-1 -79 -3 -90 -28 -121 -67 -84 -203 -97 -286 -28 -45 38 -52 58 -54 151 -2
81 -2 84 18 78 12 -3 54 -11 94 -17z"/>
<path d="M1499 2686 c-2 -2 -26 -7 -54 -10 -51 -7 -204 -33 -355 -61 -47 -9
-127 -22 -177 -30 -62 -10 -105 -23 -132 -39 -21 -14 -41 -22 -44 -19 -10 9
-114 -101 -137 -147 -13 -25 -25 -50 -26 -56 -1 -6 -5 -20 -8 -31 -4 -13 2
-27 20 -44 l26 -24 1230 0 1230 0 24 28 c19 22 22 32 14 47 -6 11 -9 23 -8 27
5 16 -34 82 -77 130 -36 41 -91 80 -125 89 -3 0 -21 8 -40 17 -20 8 -72 20
-116 26 -44 7 -91 14 -105 17 -13 3 -37 7 -54 8 -16 2 -37 6 -45 9 -8 3 -22 6
-30 6 -8 0 -60 9 -115 20 -55 10 -118 21 -140 24 -22 3 -58 9 -81 12 -39 7
-43 5 -95 -44 -82 -77 -145 -105 -238 -104 -104 0 -164 29 -264 126 -24 23
-65 36 -78 23z m84 -80 c24 -29 61 -57 104 -77 59 -30 75 -33 152 -33 109 0
183 31 253 106 l48 50 97 -17 c54 -9 214 -36 356 -61 284 -48 322 -61 396
-136 42 -41 91 -126 91 -158 0 -13 -144 -15 -1240 -15 -1096 0 -1240 2 -1240
15 0 33 49 117 93 161 75 73 109 84 477 148 184 33 344 59 355 60 13 1 35 -16
58 -43z"/>
<path d="M375 2160 c-11 -4 -30 -22 -42 -38 l-23 -31 0 -857 0 -857 36 -33 35
-34 1459 0 1459 0 36 35 35 36 0 851 c0 850 0 851 -21 885 -12 19 -33 39 -46
44 -30 11 -2900 11 -2928 -1z m2937 -47 c17 -15 18 -56 18 -874 0 -766 -2
-859 -16 -873 -14 -14 -161 -16 -1474 -16 -1313 0 -1460 2 -1474 16 -14 14
-16 107 -16 871 0 783 1 858 17 875 15 17 74 18 1471 18 1340 0 1457 -1 1474
-17z"/>
<path d="M1757 1536 c-227 -63 -300 -351 -131 -518 62 -62 115 -83 214 -83 99
0 152 21 214 83 66 65 91 125 91 217 0 93 -21 148 -80 213 -72 81 -203 118
-308 88z m186 -52 c84 -29 154 -127 164 -229 9 -99 -67 -229 -157 -266 -46
-18 -175 -18 -220 1 -91 38 -166 165 -157 266 8 102 82 205 164 230 55 17 152
16 206 -2z"/>
<path d="M1777 1435 c-15 -8 -29 -13 -31 -12 -9 5 -75 -62 -90 -92 -26 -49
-28 -132 -5 -175 30 -57 94 -113 122 -108 4 1 7 -3 7 -8 0 -17 109 -12 143 7
42 24 97 81 112 118 17 39 13 122 -8 161 -16 31 -80 98 -95 100 -4 0 -20 6
-35 12 -38 16 -86 15 -120 -3z m115 -35 c46 -13 105 -77 114 -124 14 -77 -21
-153 -85 -186 -170 -86 -332 120 -204 261 48 53 103 69 175 49z"/>
<path d="M4125 1738 c-11 -6 -23 -16 -27 -22 -4 -6 -8 -70 -8 -143 0 -125 1
-133 22 -147 31 -22 71 -20 94 5 17 18 19 37 19 151 0 124 -1 131 -24 149 -26
22 -47 23 -76 7z m57 -140 c0 -54 1 -103 2 -109 2 -19 -32 -35 -45 -22 -11 11
-14 207 -3 224 2 4 13 7 24 6 18 -1 20 -9 22 -99z"/>
<path d="M3845 1638 c-32 -18 -35 -28 -35 -115 0 -73 2 -83 22 -97 31 -22 71
-20 94 5 15 17 19 36 19 101 0 72 -2 82 -24 99 -26 22 -47 23 -76 7z m50 -108
c0 -58 -2 -65 -20 -65 -17 0 -20 8 -23 54 -4 65 2 84 25 79 15 -3 18 -14 18
-68z"/>
<path d="M4405 1638 c-32 -18 -35 -28 -35 -115 0 -73 2 -83 22 -97 31 -22 71
-20 94 5 15 17 19 36 19 101 0 72 -2 82 -24 99 -26 22 -47 23 -76 7z m50 -108
c0 -58 -2 -65 -20 -65 -17 0 -20 8 -23 54 -4 65 2 84 25 79 15 -3 18 -14 18
-68z"/>
<path d="M3725 1298 c-11 -6 -23 -16 -27 -22 -4 -6 -8 -218 -8 -472 l0 -460
29 -46 c19 -30 44 -52 73 -67 43 -20 57 -21 364 -21 290 0 323 2 360 19 74 34
123 131 111 220 l-5 38 59 6 c102 9 180 70 214 166 21 62 21 317 0 369 -35 81
-102 121 -205 122 l-65 0 0 61 c0 104 25 99 -464 99 -291 -1 -422 -4 -436 -12z
m845 -44 c6 -6 12 -28 14 -50 6 -76 21 -88 130 -99 74 -7 111 -29 136 -80 17
-35 20 -62 19 -181 0 -141 -9 -185 -49 -240 -21 -30 -113 -74 -153 -74 -48 0
-72 -32 -80 -107 -8 -77 -31 -125 -71 -149 -28 -17 -57 -19 -326 -22 -162 -2
-315 0 -338 3 -32 5 -53 16 -78 42 -19 19 -34 41 -34 49 0 8 -3 14 -7 14 -13
0 -5 881 8 896 9 11 84 13 415 11 275 -1 406 -5 414 -13z"/>
<path d="M3812 1185 c-22 -25 -22 -29 -22 -413 0 -349 2 -390 17 -412 34 -50
30 -49 349 -50 289 0 302 1 327 21 15 11 31 38 37 59 6 24 10 178 10 400 -1
344 -2 362 -20 380 -11 11 -17 20 -12 20 4 0 0 5 -8 10 -9 6 -146 10 -336 10
l-320 0 -22 -25z m678 -403 c0 -335 -2 -391 -16 -410 -15 -22 -16 -22 -318
-22 -238 0 -306 3 -314 13 -8 9 -12 143 -14 410 l-3 397 333 0 332 0 0 -388z"/>
<path d="M4609 1021 c-21 -28 -22 -39 -20 -208 2 -168 4 -179 24 -201 43 -46
130 -14 174 64 20 35 23 53 23 173 l0 133 -34 34 c-31 31 -40 34 -90 34 -50 0
-58 -3 -77 -29z m146 -27 c14 -14 16 -38 13 -161 l-3 -145 -33 -29 c-23 -21
-43 -29 -70 -29 l-37 0 0 190 0 190 57 0 c39 0 62 -5 73 -16z"/>
</g>
</svg>
