<?xml version="1.0" standalone="no"?>
<!DOCTYPE svg PUBLIC "-//W3C//DTD SVG 20010904//EN"
 "http://www.w3.org/TR/2001/REC-SVG-20010904/DTD/svg10.dtd">
<svg version="1.0" xmlns="http://www.w3.org/2000/svg"
 width="200.000000pt" height="200.000000pt" viewBox="0 0 200.000000 200.000000"
 preserveAspectRatio="xMidYMid meet">
<g transform="translate(0.000000,200.000000) scale(0.100000,-0.100000)"
fill="#4fd1c5" stroke="none">
<path d="M1127 1824 c-3 -6 -41 -24 -84 -39 -87 -31 -118 -49 -181 -109 -45
-43 -72 -84 -72 -111 0 -21 23 -19 37 4 14 23 72 35 106 22 22 -9 25 -8 20 6
-5 12 -17 14 -55 11 -42 -4 -47 -3 -36 9 8 7 44 15 84 18 117 8 173 16 179 25
3 5 -20 7 -50 4 -159 -12 -177 -15 -220 -29 -32 -11 23 32 63 50 22 10 31 19
26 27 -4 7 -4 10 1 6 4 -4 30 4 57 18 54 28 112 33 147 14 19 -9 22 -18 19
-46 -2 -20 0 -34 7 -34 14 0 95 -83 95 -97 0 -7 10 -21 21 -32 19 -17 21 -27
16 -71 -7 -60 -1 -80 24 -80 10 0 19 -6 19 -13 0 -8 -7 -14 -15 -14 -8 0 -15
4 -15 9 0 5 -13 2 -30 -7 -16 -9 -30 -12 -30 -7 0 9 -117 -2 -127 -12 -4 -4
-1 -12 5 -18 7 -7 12 -28 12 -48 0 -40 -25 -71 -73 -89 -38 -15 -53 -14 -71 5
-9 8 -27 17 -41 18 -51 5 -87 65 -64 107 9 17 8 24 -2 30 -9 6 -1 8 25 7 31
-2 42 2 54 20 8 12 25 22 38 22 17 0 22 4 18 15 -9 24 -38 18 -66 -14 -20 -22
-39 -31 -77 -36 -28 -4 -48 -11 -45 -16 3 -5 9 -7 14 -4 9 6 23 -25 15 -33 -3
-3 -5 1 -5 8 0 7 -3 10 -7 7 -3 -4 -13 2 -21 14 -8 11 -20 18 -28 15 -8 -3
-14 -1 -14 4 0 6 -5 10 -11 10 -8 0 -8 -4 0 -14 8 -9 8 -16 2 -20 -13 -9 -22
8 -26 50 -4 47 -12 53 -25 20 -21 -57 40 -130 68 -80 7 13 14 7 36 -30 29 -50
77 -91 119 -101 31 -8 36 -37 12 -61 -25 -26 -11 -193 17 -210 7 -5 9 3 4 22
-18 81 -19 95 -6 92 14 -3 43 42 34 52 -3 3 -14 -5 -24 -17 -24 -30 -32 -29
-28 5 3 29 3 29 116 31 41 1 52 4 52 17 0 11 -5 14 -16 10 -12 -5 -15 -2 -10
10 3 8 6 23 6 32 0 10 17 25 38 35 65 31 83 44 110 81 17 25 29 33 36 26 29
-29 86 17 86 70 0 28 -27 60 -51 60 -10 0 -14 14 -15 54 -1 62 -31 121 -89
175 -20 18 -39 47 -42 63 -4 22 -10 28 -24 25 -13 -4 -20 4 -26 32 -5 20 -12
31 -16 25z m85 -501 l4 -28 12 27 c7 18 18 26 32 25 25 -2 25 -9 0 -38 -11
-14 -19 -18 -20 -11 0 7 -5 10 -11 7 -6 -4 -8 -13 -6 -19 3 -7 -1 -13 -8 -13
-7 0 -11 7 -8 16 4 14 3 14 -9 0 -12 -15 -15 -14 -24 16 -8 26 -8 32 3 28 7
-3 13 0 13 6 0 23 19 10 22 -16z"/>
<path d="M1157 1629 c-9 -6 -22 -7 -27 -4 -6 3 -10 1 -10 -4 0 -6 -8 -11 -17
-11 -10 -1 -29 -8 -43 -16 l-25 -15 30 6 c95 19 126 18 156 -4 19 -14 29 -17
29 -9 0 14 -49 56 -58 50 -3 -2 -8 1 -11 6 -4 7 -12 7 -24 1z"/>
<path d="M855 1552 c-17 -17 -85 -32 -85 -20 0 6 -2 9 -4 7 -9 -10 13 -133 26
-140 20 -13 34 -11 20 3 -14 14 -16 104 -3 113 5 3 31 9 58 14 36 7 54 6 77
-6 22 -12 30 -12 36 -2 5 6 16 9 25 5 10 -3 24 -1 31 5 12 10 13 8 8 -6 -6
-16 -4 -17 17 -10 13 4 49 11 79 15 30 4 53 8 50 10 -3 1 -57 4 -120 6 -63 2
-135 6 -160 9 -26 4 -49 2 -55 -3z"/>
<path d="M1253 1536 c5 -13 3 -17 -6 -13 -10 4 -14 -6 -15 -36 -1 -23 -4 -49
-7 -58 -10 -31 12 -30 25 1 7 16 16 27 21 24 17 -10 10 73 -8 87 -15 12 -16
12 -10 -5z"/>
<path d="M923 1480 c-27 -11 -27 -11 -11 -45 14 -31 19 -31 47 1 18 20 20 28
10 40 -13 16 -16 16 -46 4z"/>
<path d="M1107 1483 c-13 -3 -17 -12 -15 -31 2 -23 8 -27 33 -27 19 0 29 5 28
13 -2 6 2 12 9 12 6 0 3 9 -7 20 -10 11 -21 19 -24 19 -3 -1 -14 -3 -24 -6z"/>
<path d="M1050 1457 c0 -25 33 -67 52 -67 l22 0 -21 15 c-12 9 -29 26 -38 38
-8 12 -15 18 -15 14z"/>
<path d="M1040 1381 c0 -13 8 -17 48 -26 20 -4 32 -3 32 4 0 6 -11 11 -24 11
-14 0 -28 5 -31 10 -8 13 -25 13 -25 1z"/>
<path d="M1040 1299 c0 -8 -13 -10 -42 -6 -27 4 -37 2 -27 -4 18 -11 60 -11
78 0 9 6 10 11 2 15 -6 4 -11 2 -11 -5z"/>
<path d="M540 1211 c0 -40 3 -50 20 -54 26 -7 33 6 35 60 1 41 0 43 -27 43
-27 0 -28 -2 -28 -49z"/>
<path d="M620 1185 c0 -9 -12 -27 -27 -41 -24 -22 -25 -25 -8 -22 22 3 22 3
24 -83 l1 -56 65 -27 c64 -28 86 -32 158 -28 28 1 36 5 30 15 -4 6 -6 20 -4
31 1 11 -2 16 -8 12 -6 -4 -11 -13 -11 -20 0 -16 -80 -12 -112 5 -13 7 -24 11
-26 10 -5 -4 -37 18 -32 22 3 2 16 12 30 21 l25 18 -25 -7 c-13 -4 -30 -14
-38 -21 -20 -21 -32 -17 -32 11 0 25 15 35 22 14 2 -5 11 -7 21 -3 14 5 12 9
-15 23 -35 17 -37 24 -25 99 5 26 3 42 -3 42 -5 0 -10 -7 -10 -15z"/>
<path d="M1180 1099 c58 -49 90 -83 90 -95 0 -5 7 -19 16 -30 14 -18 14 -18 3
5 l-11 24 35 -21 c19 -12 38 -22 41 -22 10 0 -8 16 -89 83 -38 32 -77 64 -86
72 -9 8 -20 15 -25 15 -5 0 7 -14 26 -31z"/>
<path d="M543 1093 c-36 -7 -27 -21 12 -20 22 1 35 6 35 14 0 13 -6 14 -47 6z"/>
<path d="M894 1089 c-3 -6 -20 -17 -38 -25 -17 -7 -26 -13 -20 -14 20 0 84 30
84 40 0 13 -17 13 -26 -1z"/>
<path d="M1107 1093 c-4 -3 -7 -15 -7 -25 0 -10 -9 -27 -20 -38 -11 -11 -20
-16 -20 -12 0 4 5 13 10 18 11 11 3 44 -10 44 -14 0 -17 -23 -11 -85 l6 -60
26 55 c35 74 47 125 26 103z"/>
<path d="M548 1047 c-33 -13 -35 -22 -8 -37 12 -7 20 -21 20 -38 0 -15 4 -33
9 -40 13 -21 46 -10 49 16 4 23 -12 30 -24 10 -5 -7 -2 -8 7 -3 11 6 12 5 2
-6 -18 -19 -30 -2 -35 49 -2 29 0 42 9 42 7 0 13 5 13 10 0 12 -6 11 -42 -3z"/>
<path d="M1193 1040 c-1 -11 2 -20 7 -20 5 0 12 -9 15 -20 3 -11 10 -20 15
-20 11 0 -13 73 -26 77 -5 2 -10 -6 -11 -17z"/>
<path d="M784 1036 c-11 -8 -33 -16 -49 -18 -16 -1 -30 -10 -32 -18 -4 -12 -3
-12 5 -2 5 8 12 13 16 13 31 -4 57 2 76 19 26 23 15 27 -16 6z"/>
<path d="M1520 996 c0 -14 -4 -28 -10 -31 -5 -3 -10 3 -10 14 0 12 -7 21 -15
21 -21 0 -19 -24 9 -79 14 -28 21 -52 16 -57 -5 -5 -10 -24 -12 -43 -2 -19
-10 -37 -17 -39 -9 -3 -11 0 -6 8 6 9 3 9 -14 1 -26 -14 -41 -42 -41 -76 0
-75 86 -118 159 -80 32 16 41 33 41 75 0 37 -45 91 -68 83 -16 -6 -16 -6 0 10
9 9 21 17 26 17 8 0 22 45 22 71 0 13 -12 11 -34 -6 -15 -11 -17 -17 -7 -29
10 -12 8 -16 -9 -21 -27 -9 -48 9 -33 27 6 7 9 30 7 51 -3 33 -1 37 20 37 24
0 36 17 36 49 0 11 -9 17 -30 19 -26 2 -30 -1 -30 -22z m58 -232 c12 -8 20
-20 17 -25 -4 -5 -2 -9 3 -9 5 0 9 -10 8 -22 -1 -15 -7 -23 -18 -22 -11 1 -14
-4 -10 -14 4 -11 1 -14 -11 -9 -10 4 -20 0 -25 -9 -7 -13 -13 -13 -47 0 -22 8
-34 15 -27 15 8 1 12 7 9 14 -2 6 3 17 12 24 9 6 12 15 8 19 -4 5 -12 2 -17
-6 -12 -20 -35 2 -27 24 9 22 47 21 47 -1 1 -14 5 -12 21 10 24 32 27 32 57
11z"/>
<path d="M1520 735 c-12 -15 -6 -35 11 -35 6 0 7 9 3 22 -6 21 -6 22 12 8 18
-14 18 -14 5 3 -16 21 -16 21 -31 2z"/>
<path d="M1120 974 c0 -9 7 -14 17 -12 25 5 28 28 4 28 -12 0 -21 -6 -21 -16z"/>
<path d="M1259 943 c-26 -7 -38 -58 -37 -158 2 -149 -1 -210 -11 -232 -6 -13
-16 -33 -21 -46 -7 -13 -27 -27 -51 -35 -33 -10 -43 -10 -64 4 -13 9 -29 13
-35 9 -6 -4 -18 1 -25 11 -14 18 -14 18 -15 1 0 -15 -7 -18 -46 -15 -30 2 -50
9 -54 18 -4 8 -11 24 -16 35 -6 11 -10 98 -10 192 1 162 -3 196 -18 157 -11
-27 -7 -364 4 -364 6 0 10 -43 11 -107 1 -60 4 -121 8 -138 l7 -30 7 26 c7 28
1 175 -8 190 -8 12 8 11 55 -3 34 -11 40 -17 40 -40 0 -16 -4 -28 -9 -28 -12
0 -34 -95 -29 -125 5 -22 1 -24 -36 -27 l-41 -3 -9 -52 c-11 -66 -4 -83 33
-83 45 0 82 50 81 109 -1 33 37 212 54 258 1 1 13 -1 27 -4 23 -4 27 -12 39
-71 7 -37 19 -83 26 -103 8 -24 10 -64 7 -117 l-6 -80 34 -7 c28 -6 36 -4 57
21 22 26 24 34 19 98 -3 39 -2 125 3 191 25 319 28 384 20 440 -4 33 -6 62 -4
64 2 2 16 -2 31 -9 43 -19 203 -57 209 -49 2 4 0 10 -6 14 -5 3 -10 18 -10 33
-1 23 -2 25 -11 9 -5 -9 -7 -22 -4 -27 8 -13 -18 -13 -32 1 -5 5 -24 11 -41
11 -17 1 -29 5 -26 10 3 4 -6 8 -20 8 -14 0 -26 5 -26 10 0 6 -7 10 -16 8 -10
-2 -19 3 -22 11 -3 9 0 11 8 6 9 -5 11 -4 6 3 -4 7 -8 11 -9 11 -1 -1 -9 -3
-18 -6z m-63 -498 c0 -19 -3 -35 -6 -35 -4 0 -4 -22 0 -49 3 -28 2 -47 -3 -44
-11 7 3 -70 15 -78 14 -9 -21 -21 -41 -14 -12 3 -16 16 -16 40 1 19 -2 35 -6
35 -4 0 -9 19 -12 43 -3 23 -7 51 -9 62 -3 14 6 28 30 47 19 16 38 28 41 28 4
0 7 -16 7 -35z m-264 -256 c-2 -13 -7 -28 -12 -33 -12 -12 -30 2 -25 19 3 8 7
22 10 31 8 24 30 10 27 -17z m263 -36 c-2 -10 -4 -21 -4 -25 -1 -5 -13 -8 -28
-8 -22 0 -25 2 -13 10 8 5 11 10 5 10 -5 0 1 7 15 14 14 8 26 14 27 15 1 1 0
-7 -2 -16z"/>
<path d="M1558 933 c-27 -7 -22 -23 7 -23 16 0 25 6 25 15 0 15 -2 16 -32 8z"/>
<path d="M1114 848 c-36 -60 -49 -101 -31 -95 13 4 74 113 76 135 2 26 -15 10
-45 -40z"/>
<path d="M980 815 c-13 -15 -12 -19 3 -30 9 -7 17 -22 17 -33 0 -11 5 -24 10
-27 13 -8 12 20 -3 69 -11 36 -13 38 -27 21z"/>
<path d="M1180 600 c-24 -14 -54 -23 -67 -21 -7 1 -13 -3 -13 -9 0 -5 7 -10
16 -10 22 0 84 30 84 41 0 11 0 10 -20 -1z"/>
</g>
</svg>
