<?xml version="1.0" standalone="no"?>
<!DOCTYPE svg PUBLIC "-//W3C//DTD SVG 20010904//EN"
 "http://www.w3.org/TR/2001/REC-SVG-20010904/DTD/svg10.dtd">
<svg version="1.0" xmlns="http://www.w3.org/2000/svg"
 width="200.000000pt" height="200.000000pt" viewBox="0 0 200.000000 200.000000"
 preserveAspectRatio="xMidYMid meet">
<g transform="translate(0.000000,200.000000) scale(0.100000,-0.100000)"
fill="#4fd1c5" stroke="none">
<path d="M820 1705 c-142 -29 -234 -79 -336 -180 -165 -165 -239 -447 -194
-740 40 -265 214 -471 460 -546 98 -31 309 -33 410 -6 185 50 330 169 412 338
67 137 81 204 82 388 l1 154 -112 1 -112 1 6 -102 c9 -160 -22 -308 -86 -408
-41 -65 -101 -116 -181 -154 -69 -33 -84 -36 -180 -39 -163 -6 -257 32 -355
140 -147 163 -179 481 -73 706 34 73 131 178 194 210 70 36 162 55 242 50 l72
-5 0 104 0 103 -92 -1 c-51 0 -122 -7 -158 -14z m219 -57 c1 -23 -1 -53 -4
-68 -6 -26 -9 -27 -93 -34 -73 -5 -210 -33 -177 -35 12 -2 -16 -21 -30 -21 -5
0 -3 5 5 10 8 5 11 10 7 10 -7 0 -24 -15 -116 -102 -22 -20 -37 -39 -33 -42 5
-6 -14 -10 -31 -7 -5 1 -6 -2 -3 -7 3 -5 -4 -27 -15 -48 -11 -21 -25 -56 -31
-76 -6 -21 -15 -35 -19 -32 -4 2 -8 -4 -8 -13 0 -10 -4 -38 -10 -63 -13 -57
-13 -249 0 -315 5 -27 10 -58 10 -68 0 -9 5 -15 10 -11 6 3 7 -5 4 -23 -5 -21
-4 -24 4 -13 10 13 11 13 11 0 0 -8 13 -41 29 -72 16 -31 26 -60 22 -64 -3 -4
0 -4 7 0 11 7 42 -14 42 -29 0 -14 112 -105 129 -105 4 0 23 -8 42 -17 23 -12
66 -19 139 -21 110 -5 244 13 233 31 -4 6 4 7 20 3 22 -5 25 -3 20 10 -5 14
-3 15 15 5 15 -8 22 -8 22 -1 0 5 -5 10 -11 10 -6 0 -1 9 12 19 13 11 25 15
27 10 4 -11 32 15 32 31 0 6 4 9 9 6 5 -3 12 1 15 10 3 8 10 12 16 9 5 -3 10
1 10 10 0 8 7 18 15 21 8 4 15 17 15 30 0 14 6 24 14 24 16 0 29 27 20 41 -3
5 0 9 6 9 6 0 8 5 5 10 -4 6 -2 16 3 23 20 26 33 109 39 245 l6 142 58 0 c31
0 64 3 72 6 12 4 14 0 10 -15 -3 -12 -1 -21 3 -21 10 0 10 -158 1 -226 -11
-83 -45 -196 -57 -189 -4 3 -6 -5 -2 -17 4 -17 2 -20 -11 -15 -11 4 -14 2 -10
-9 7 -18 -5 -66 -16 -60 -4 3 -14 -11 -22 -31 -7 -19 -24 -43 -36 -53 -12 -9
-20 -20 -18 -24 3 -3 2 -4 -2 -1 -9 7 -43 -25 -43 -40 0 -11 -19 -24 -40 -27
-3 -1 -21 -11 -40 -23 -20 -12 -51 -26 -69 -30 -26 -5 -30 -10 -20 -17 11 -8
10 -9 -4 -4 -10 3 -26 2 -35 -3 -18 -9 -46 -16 -149 -34 -81 -13 -232 3 -245
27 -5 9 -14 16 -21 16 -7 0 -6 -4 3 -10 8 -5 12 -11 10 -14 -8 -7 -60 6 -55
14 3 4 -2 10 -10 13 -10 4 -12 1 -8 -11 6 -14 5 -15 -9 -2 -9 8 -14 19 -11 23
3 4 -7 5 -21 1 -19 -4 -28 -2 -32 10 -3 9 -10 13 -15 10 -5 -3 -9 0 -9 5 0 6
-9 11 -19 11 -11 0 -23 5 -27 12 -4 7 -3 8 4 4 7 -4 12 -2 12 3 0 6 -8 11 -19
11 -24 0 -121 98 -121 122 0 13 -5 18 -14 15 -10 -4 -19 11 -31 49 -9 30 -21
57 -27 60 -6 4 -6 -2 1 -14 6 -11 11 -24 11 -29 -2 -28 -39 69 -40 102 0 30
-3 36 -10 25 -8 -12 -10 -10 -9 10 0 14 -7 74 -16 135 -9 68 -12 111 -6 113 6
2 8 9 5 17 -3 7 0 57 6 111 7 55 12 105 13 112 0 6 4 12 9 12 5 0 6 11 2 25
-6 26 9 36 20 13 3 -7 4 -1 2 15 -2 15 1 27 5 27 5 0 9 -5 9 -12 0 -6 2 -9 5
-6 3 3 1 17 -4 30 -7 20 -6 30 8 44 21 23 35 54 33 74 -1 10 0 11 4 3 9 -20
26 -15 19 6 -4 13 7 28 42 57 73 60 79 66 66 59 -7 -3 -13 -4 -13 -1 0 3 22
18 50 34 27 16 47 33 42 38 -4 4 0 3 9 -4 11 -9 24 -9 40 -3 l24 10 -25 0 -25
1 25 13 c14 7 61 21 105 30 104 22 108 22 186 24 l65 1 3 -40z"/>
<path d="M1270 1614 l0 -102 85 6 85 5 0 -92 0 -91 105 0 105 0 0 188 0 187
-190 0 -190 0 0 -101z m340 -84 l0 -150 -26 -6 c-33 -9 -95 2 -106 18 -5 7 -6
27 -3 45 13 76 -24 113 -113 113 -53 0 -62 9 -62 72 0 58 -1 58 161 58 l149 0
0 -150z"/>
</g>
</svg>
